HIERARCHY
ROOT SpineBase
{
  OFFSET 0.000000 0.000000 0.000000
  CHANNELS 6 Xposition Yposition Zposition Zrotation Xrotation Yrotation
  JOINT SpineMid
  {
    OFFSET 0.000000 33.702676 0.000000
    CHANNELS 3 Zrotation Xrotation Yrotation
    JOINT SpineShoulder
    {
      OFFSET -0.124276 24.912945 -0.793327
      CHANNELS 3 Zrotation Xrotation Yrotation
      JOINT Neck
      {
        OFFSET -0.084066 8.199052 -0.618164
        CHANNELS 3 Zrotation Xrotation Yrotation
        JOINT Head
        {
          OFFSET -1.289963 14.489874 -2.052893
          CHANNELS 3 Zrotation Xrotation Yrotation
          End Site
          {
            OFFSET 0 0 0
          }
        }
      }
      JOINT ShoulderLeft
      {
        OFFSET -16.114326 -3.406380 8.301739
        CHANNELS 3 Zrotation Xrotation Yrotation
        JOINT ElbowLeft
        {
          OFFSET -0.170474 -24.714143 1.078385
          CHANNELS 3 Zrotation Xrotation Yrotation
          JOINT WristLeft
          {
            OFFSET 10.331576 -9.466840 -24.521981
            CHANNELS 3 Zrotation Xrotation Yrotation
            JOINT HandLeft
            {
              OFFSET 5.420639 -3.671305 0.847501
              CHANNELS 3 Zrotation Xrotation Yrotation
              JOINT HandTipLeft
              {
                OFFSET 4.649979 -2.914678 -1.383072
                CHANNELS 3 Zrotation Xrotation Yrotation
                End Site
                {
                  OFFSET 0 0 0
                }
              }
              JOINT ThumbLeft
              {
                OFFSET 3.571047 6.444357 -2.463756
                CHANNELS 3 Zrotation Xrotation Yrotation
                End Site
                {
                  OFFSET 0 0 0
                }
              }
            }
          }
        }
      }
      JOINT ShoulderRight
      {
        OFFSET 15.867495 -1.372325 -5.586943
        CHANNELS 3 Zrotation Xrotation Yrotation
        JOINT ElbowRight
        {
          OFFSET 10.838923 -15.178216 -11.333986
          CHANNELS 3 Zrotation Xrotation Yrotation
          JOINT WristRight
          {
            OFFSET -3.144415 20.666530 -4.322777
            CHANNELS 3 Zrotation Xrotation Yrotation
            JOINT HandRight
            {
              OFFSET -2.039807 5.015716 2.531151
              CHANNELS 3 Zrotation Xrotation Yrotation
              JOINT HandTipRight
              {
                OFFSET -1.683902 6.071064 -0.548225
                CHANNELS 3 Zrotation Xrotation Yrotation
                End Site
                {
                  OFFSET 0 0 0
                }
              }
              JOINT ThumbRight
              {
                OFFSET -4.425313 0.476973 3.180376
                CHANNELS 3 Zrotation Xrotation Yrotation
                End Site
                {
                  OFFSET 0 0 0
                }
              }
            }
          }
        }
      }
    }
  }
  JOINT HipLeft
  {
    OFFSET -7.442364 -0.028656 -1.382147
    CHANNELS 3 Zrotation Xrotation Yrotation
    JOINT KneeLeft
    {
      OFFSET -1.964735 -34.846309 0.124016
      CHANNELS 3 Zrotation Xrotation Yrotation
      JOINT AnkleLeft
      {
        OFFSET 1.694070 -38.258495 17.084401
        CHANNELS 3 Zrotation Xrotation Yrotation
        JOINT FootLeft
        {
          OFFSET -5.017410 -6.305953 -4.957642
          CHANNELS 3 Zrotation Xrotation Yrotation
          End Site
          {
            OFFSET 0 0 0
          }
        }
      }
    }
  }
  JOINT HipRight
  {
    OFFSET 6.210712 1.107799 -6.349581
    CHANNELS 3 Zrotation Xrotation Yrotation
    JOINT KneeRight
    {
      OFFSET 6.133849 -33.408404 -3.897274
      CHANNELS 3 Zrotation Xrotation Yrotation
      JOINT AnkleRight
      {
        OFFSET 1.557701 -39.129277 17.700406
        CHANNELS 3 Zrotation Xrotation Yrotation
        JOINT FootRight
        {
          OFFSET -2.932836 -8.020210 -6.760796
          CHANNELS 3 Zrotation Xrotation Yrotation
          End Site
          {
            OFFSET 0 0 0
          }
        }
      }
    }
  }
}
MOTION
Frames: 9
Frame Time: 0.033333
54.652573 79.521622 362.525975 3.189902 -5.961377 41.313467 -0.325476 -2.059151 -41.064039 -0.121551 0.106059 0.141569 16.809514 21.273243 -1.138959 0.000000 0.000000 0.000000 -2.365494 -4.223856 0.148736 -14.831142 0.936649 36.069559 -147.119360 -23.950669 73.852891 150.794124 -37.078365 81.335413 0.000000 0.000000 0.000000 0.000000 0.000000 0.000000 -16.745091 31.236254 27.702192 0.396276 -31.918275 -23.726815 -17.943278 -46.072042 -27.456460 -35.096834 50.803596 47.530946 0.000000 0.000000 0.000000 0.000000 0.000000 0.000000 0.314033 2.858249 -40.926024 -2.517801 12.117764 -0.097162 -6.485978 -29.366994 21.975797 0.000000 0.000000 0.000000 4.245889 5.681731 -41.626843 0.708775 0.418263 1.669079 -10.181070 0.712197 3.251891 0.000000 0.000000 0.000000
54.996277 78.335795 363.127893 4.681331 -6.853154 44.354842 -0.490948 -1.801746 -43.934851 -0.303809 0.251658 0.186952 18.068136 24.741703 -1.999543 0.000000 0.000000 0.000000 -3.221139 -3.777302 0.160121 -15.860469 -2.036529 38.693894 -73.936359 79.610072 -103.597187 21.212992 51.962935 -175.523103 0.000000 0.000000 0.000000 0.000000 0.000000 0.000000 -25.718795 25.365407 32.873564 13.280092 -42.144250 -22.619925 -18.331285 -42.723768 -30.314752 -22.523927 44.586273 36.312302 0.000000 0.000000 0.000000 0.000000 0.000000 0.000000 -1.263773 4.428813 -43.621266 -1.711269 15.180373 -0.059951 -5.232527 -25.840513 15.972949 0.000000 0.000000 0.000000 3.557404 6.364590 -44.733862 0.361366 2.021947 1.752630 -8.101232 -1.705747 2.232372 0.000000 0.000000 0.000000
55.426998 76.967294 363.701627 6.152627 -7.564857 47.849054 -0.418825 -1.484356 -47.254531 -0.348634 0.386118 0.236026 19.662432 27.581889 -2.960097 0.000000 0.000000 0.000000 -4.507208 -3.425335 0.162798 -15.518628 -1.881448 36.893030 -113.318681 61.297531 -15.261631 64.249017 38.557882 107.084374 0.000000 0.000000 0.000000 0.000000 0.000000 0.000000 -34.202203 18.540075 37.139878 28.858297 -55.906270 -19.257218 -20.555048 -33.357159 -29.391810 -1.732387 33.805509 20.126340 0.000000 0.000000 0.000000 0.000000 0.000000 0.000000 -2.555002 6.265569 -46.716565 -0.934387 17.797816 -0.046292 -5.979067 -23.351708 12.159539 0.000000 0.000000 0.000000 2.303047 6.473547 -48.296462 -0.216509 4.490723 1.876122 -4.379254 -4.621308 0.407549 0.000000 0.000000 0.000000
55.940992 75.523200 364.168516 7.546902 -7.981056 52.107403 -0.216555 -1.057675 -51.359528 -0.352527 0.512016 0.279530 21.284373 29.271420 -3.762202 0.000000 0.000000 0.000000 -5.693906 -3.423349 0.150136 -15.139388 -1.125574 35.073331 -55.082996 44.877230 -32.262142 37.356342 14.152474 81.450590 0.000000 0.000000 0.000000 0.000000 0.000000 0.000000 -41.585001 10.910816 39.826972 53.993352 -69.545924 -6.122130 -24.365104 -22.811303 -28.898418 8.423143 23.905253 15.519797 0.000000 0.000000 0.000000 0.000000 0.000000 0.000000 -2.883473 8.470600 -50.700679 -0.578610 19.017914 -0.066114 -7.852183 -15.321040 5.733281 0.000000 0.000000 0.000000 0.139059 5.953477 -52.627921 -1.000497 8.003687 2.112120 2.297555 -13.348071 -0.900226 0.000000 0.000000 0.000000
56.366204 74.243871 364.554805 8.771275 -8.203727 51.176389 0.058880 -0.703120 -50.303893 -0.279436 0.492661 0.323825 23.898204 30.510903 -4.764607 0.000000 0.000000 0.000000 -6.876544 -3.375546 0.133885 -14.090975 0.488139 31.242429 0.369192 15.914832 -27.029535 -5.988086 21.068264 67.191013 0.000000 0.000000 0.000000 0.000000 0.000000 0.000000 -47.701180 5.925606 42.995202 121.605279 -79.529292 52.743865 -30.945164 -9.420544 -25.461623 14.548770 17.867325 14.046075 0.000000 0.000000 0.000000 0.000000 0.000000 0.000000 -4.388928 9.078117 -49.356347 -0.964909 20.860770 -0.169114 -8.424419 -17.517788 7.139765 0.000000 0.000000 0.000000 -0.848437 6.565107 -51.590618 -1.732928 9.282552 2.089403 -1.271619 -11.449602 1.294885 0.000000 0.000000 0.000000
56.696046 73.270845 364.748031 9.756125 -8.104499 53.421132 0.340900 -0.347635 -52.482738 -0.187742 0.453737 0.363120 26.940362 30.417707 -5.459445 0.000000 0.000000 0.000000 -7.810891 -3.906893 0.101176 -12.281946 4.304048 26.065521 15.079245 8.333475 -15.092061 -7.186053 35.363570 57.553927 0.000000 0.000000 0.000000 0.000000 0.000000 0.000000 -52.270208 3.387593 46.369430 179.567659 -71.436057 105.666021 -36.407732 3.897265 -22.372041 16.629990 10.577553 15.945516 0.000000 0.000000 0.000000 0.000000 0.000000 0.000000 -3.971858 10.417464 -51.604311 -1.503856 20.213497 -0.224272 -8.649488 -20.098522 9.268964 0.000000 0.000000 0.000000 -2.944595 6.172312 -53.802954 -1.961580 11.963254 2.422915 2.142918 -15.426202 0.427531 0.000000 0.000000 0.000000
56.834354 72.477751 364.854439 10.225854 -7.755637 52.557771 0.672105 0.092018 -51.639686 -0.006283 0.384158 0.386784 31.030721 28.702031 -5.645092 0.000000 0.000000 0.000000 -8.361061 -4.728145 0.045888 -10.005603 8.652012 21.091523 19.588469 5.383708 -6.508087 3.023309 42.980878 45.707525 0.000000 0.000000 0.000000 0.000000 0.000000 0.000000 -55.713068 5.558956 52.820289 -166.365691 -61.049655 120.240944 -32.841444 17.595732 -27.025057 13.945383 -1.887490 24.187601 0.000000 0.000000 0.000000 0.000000 0.000000 0.000000 -3.823775 10.411163 -50.864074 -2.472905 19.219113 -0.298696 -8.463360 -13.671873 5.452728 0.000000 0.000000 0.000000 -4.333520 5.976910 -52.867207 -1.555817 13.264796 2.622825 -4.958926 -8.133730 2.114635 0.000000 0.000000 0.000000
56.584665 72.616046 364.719234 10.771428 -7.147969 50.133743 1.319465 -0.154963 -49.261553 0.068288 0.269685 0.451421 30.332267 27.965708 -5.267974 0.000000 0.000000 0.000000 -9.617920 -5.512985 -0.032549 -7.281849 13.118394 15.906405 20.670119 4.698527 2.261563 3.806200 41.582078 38.309456 0.000000 0.000000 0.000000 0.000000 0.000000 0.000000 -57.446707 2.920064 51.203123 -171.994227 -62.446470 111.622366 -34.087385 7.456079 -29.144998 10.668074 7.111039 24.153410 0.000000 0.000000 0.000000 0.000000 0.000000 0.000000 -4.773492 8.835341 -48.390762 -4.008527 19.641573 -0.331911 -5.567435 -11.938849 3.480957 0.000000 0.000000 0.000000 -4.936858 6.544931 -50.234635 -0.253092 12.552080 2.703283 -8.948021 -5.821800 2.976442 0.000000 0.000000 0.000000
56.225348 72.664963 364.556656 10.567874 -6.828801 45.614083 0.549189 -0.157475 -44.717985 -0.018931 0.494133 0.401081 34.044538 28.023051 -5.827094 0.000000 0.000000 0.000000 -8.855410 -5.444387 -0.011078 -5.891889 15.001430 13.429011 20.314891 4.145772 5.373861 5.421587 38.460346 32.227233 0.000000 0.000000 0.000000 0.000000 0.000000 0.000000 -56.203560 1.766203 49.421898 176.072580 -67.905624 98.535988 -36.312943 2.762195 -25.017490 13.686503 12.321480 18.348750 0.000000 0.000000 0.000000 0.000000 0.000000 0.000000 -5.823470 6.343455 -43.809218 -5.059528 20.671540 -0.306607 -5.251879 -18.260543 8.274479 0.000000 0.000000 0.000000 -3.435569 7.559208 -45.601622 0.327992 8.480353 2.463549 -11.712691 -2.968668 4.078883 0.000000 0.000000 0.000000
